<?xml version="1.0" encoding="UTF-8"?><svg xmlns="http://www.w3.org/2000/svg" xmlns:xlink="http://www.w3.org/1999/xlink" fill-opacity="1" color-rendering="auto" color-interpolation="auto" text-rendering="auto" stroke="black" stroke-linecap="square" width="1215" stroke-miterlimit="10" shape-rendering="auto" stroke-opacity="1" fill="black" stroke-dasharray="none" font-weight="normal" stroke-width="1" height="262" font-family="'Dialog'" font-style="normal" stroke-linejoin="miter" font-size="12px" stroke-dashoffset="0" image-rendering="auto">
  <!--Generated by ySVG 2.5-->
  <defs id="genericDefs"/>
  <g>
    <defs id="defs1">
      <linearGradient x1="638" gradientUnits="userSpaceOnUse" x2="716" y1="282.4609" y2="330.9609" id="linearGradient1" spreadMethod="reflect">
        <stop stop-opacity="1" stop-color="rgb(232,238,247)" offset="0%"/>
        <stop stop-opacity="1" stop-color="rgb(183,201,227)" offset="100%"/>
      </linearGradient>
      <linearGradient x1="3" gradientUnits="userSpaceOnUse" x2="91" y1="151" y2="199.5" id="linearGradient2" spreadMethod="reflect">
        <stop stop-opacity="1" stop-color="rgb(232,238,247)" offset="0%"/>
        <stop stop-opacity="1" stop-color="rgb(183,201,227)" offset="100%"/>
      </linearGradient>
      <linearGradient x1="3" gradientUnits="userSpaceOnUse" x2="83" y1="205" y2="253.5" id="linearGradient3" spreadMethod="reflect">
        <stop stop-opacity="1" stop-color="rgb(232,238,247)" offset="0%"/>
        <stop stop-opacity="1" stop-color="rgb(183,201,227)" offset="100%"/>
      </linearGradient>
      <linearGradient x1="1078" gradientUnits="userSpaceOnUse" x2="1158" y1="286.7109" y2="326.7109" id="linearGradient4" spreadMethod="reflect">
        <stop stop-opacity="1" stop-color="rgb(232,238,247)" offset="0%"/>
        <stop stop-opacity="1" stop-color="rgb(183,201,227)" offset="100%"/>
      </linearGradient>
      <clipPath clipPathUnits="userSpaceOnUse" id="clipPath1">
        <path d="M0 0 L1215 0 L1215 262 L0 262 L0 0 Z"/>
      </clipPath>
      <clipPath clipPathUnits="userSpaceOnUse" id="clipPath2">
        <path d="M-27 99 L1188 99 L1188 361 L-27 361 L-27 99 Z"/>
      </clipPath>
    </defs>
    <g fill="white" text-rendering="geometricPrecision" shape-rendering="geometricPrecision" transform="translate(27,-99)" stroke="white">
      <rect x="-27" width="1215" height="262" y="99" clip-path="url(#clipPath2)" stroke="none"/>
    </g>
    <g fill="rgb(245,245,245)" text-rendering="geometricPrecision" shape-rendering="geometricPrecision" transform="matrix(1,0,0,1,27,-99)" stroke="rgb(245,245,245)">
      <rect x="298" y="134.5391" clip-path="url(#clipPath2)" width="315" rx="4" ry="4" height="96.4609" stroke="none"/>
      <rect x="298" y="134.5391" clip-path="url(#clipPath2)" fill="rgb(235,235,235)" width="315" height="21.4609" stroke="none"/>
    </g>
    <g font-size="15px" stroke-linecap="butt" transform="matrix(1,0,0,1,27,-99)" text-rendering="geometricPrecision" font-family="sans-serif" shape-rendering="geometricPrecision" stroke-miterlimit="1.45">
      <text x="575.9536" xml:space="preserve" y="150.4624" clip-path="url(#clipPath2)" stroke="none">Core</text>
      <rect x="298" y="134.5391" clip-path="url(#clipPath2)" fill="none" width="315" stroke-dasharray="6,2" rx="4" ry="4" height="96.4609"/>
    </g>
    <g fill="rgb(255,204,0)" text-rendering="geometricPrecision" shape-rendering="geometricPrecision" transform="matrix(1,0,0,1,27,-99)" stroke="rgb(255,204,0)">
      <rect x="313" width="116" height="45" y="171" clip-path="url(#clipPath2)" stroke="none"/>
    </g>
    <g text-rendering="geometricPrecision" stroke-miterlimit="1.45" shape-rendering="geometricPrecision" font-family="sans-serif" transform="matrix(1,0,0,1,27,-99)" stroke-linecap="butt">
      <text x="365.0615" xml:space="preserve" y="197.6543" clip-path="url(#clipPath2)" stroke="none">IR</text>
      <rect fill="none" x="313" width="116" height="45" y="171" clip-path="url(#clipPath2)"/>
    </g>
    <g fill="rgb(255,204,0)" text-rendering="geometricPrecision" shape-rendering="geometricPrecision" transform="matrix(1,0,0,1,27,-99)" stroke="rgb(255,204,0)">
      <rect x="482" width="116" height="45" y="171" clip-path="url(#clipPath2)" stroke="none"/>
    </g>
    <g text-rendering="geometricPrecision" stroke-miterlimit="1.45" shape-rendering="geometricPrecision" font-family="sans-serif" transform="matrix(1,0,0,1,27,-99)" stroke-linecap="butt">
      <text x="509.9619" xml:space="preserve" y="197.6543" clip-path="url(#clipPath2)" stroke="none">Scheduler</text>
      <rect fill="none" x="482" width="116" height="45" y="171" clip-path="url(#clipPath2)"/>
      <path fill="none" d="M437 193.5 L474 193.5" clip-path="url(#clipPath2)"/>
      <path d="M429 193.5 L441 198.5 L438 193.5 L441 188.5 Z" clip-path="url(#clipPath2)" stroke="none"/>
      <path d="M482 193.5 L470 188.5 L473 193.5 L470 198.5 Z" clip-path="url(#clipPath2)" stroke="none"/>
    </g>
    <g fill="rgb(245,245,245)" text-rendering="geometricPrecision" shape-rendering="geometricPrecision" transform="matrix(1,0,0,1,27,-99)" stroke="rgb(245,245,245)">
      <rect x="467" y="246" clip-path="url(#clipPath2)" width="264" rx="4" ry="4" height="99.9609" stroke="none"/>
      <rect x="467" y="246" clip-path="url(#clipPath2)" fill="rgb(235,235,235)" width="264" height="21.4609" stroke="none"/>
    </g>
    <g font-size="15px" stroke-linecap="butt" transform="matrix(1,0,0,1,27,-99)" text-rendering="geometricPrecision" font-family="sans-serif" shape-rendering="geometricPrecision" stroke-miterlimit="1.45">
      <text x="673.0356" xml:space="preserve" y="261.9233" clip-path="url(#clipPath2)" stroke="none">Tracing</text>
      <rect x="467" y="246" clip-path="url(#clipPath2)" fill="none" width="264" stroke-dasharray="6,2" rx="4" ry="4" height="99.9609"/>
    </g>
    <g fill="rgb(255,204,0)" text-rendering="geometricPrecision" shape-rendering="geometricPrecision" transform="matrix(1,0,0,1,27,-99)" stroke="rgb(255,204,0)">
      <rect x="482" width="116" height="45" y="282.4609" clip-path="url(#clipPath2)" stroke="none"/>
    </g>
    <g text-rendering="geometricPrecision" stroke-miterlimit="1.45" shape-rendering="geometricPrecision" font-family="sans-serif" transform="matrix(1,0,0,1,27,-99)" stroke-linecap="butt">
      <text x="509.1504" xml:space="preserve" y="309.1152" clip-path="url(#clipPath2)" stroke="none">Trace Gen</text>
      <rect fill="none" x="482" width="116" height="45" y="282.4609" clip-path="url(#clipPath2)"/>
    </g>
    <g fill="url(#linearGradient1)" text-rendering="geometricPrecision" shape-rendering="geometricPrecision" transform="matrix(1,0,0,1,27,-99)" stroke="url(#linearGradient1)">
      <path d="M638 292.1609 C640.34 282.4609 713.66 282.4609 716 292.1609 L716 321.2609 C713.66 330.9609 640.34 330.9609 638 321.2609 Z" stroke="none" clip-path="url(#clipPath2)"/>
    </g>
    <g text-rendering="geometricPrecision" stroke-miterlimit="1.45" shape-rendering="geometricPrecision" transform="matrix(1,0,0,1,27,-99)" stroke-linecap="butt">
      <path fill="none" d="M638 292.1609 C640.34 282.4609 713.66 282.4609 716 292.1609 L716 321.2609 C713.66 330.9609 640.34 330.9609 638 321.2609 Z" clip-path="url(#clipPath2)"/>
      <path fill="none" d="M716 292.1609 C713.66 301.8609 640.34 301.8609 638 292.1609" clip-path="url(#clipPath2)"/>
      <text x="657.0752" xml:space="preserve" y="303.8809" clip-path="url(#clipPath2)" font-family="sans-serif" stroke="none">Traces</text>
      <text x="657.5293" xml:space="preserve" y="317.8496" clip-path="url(#clipPath2)" font-family="sans-serif" stroke="none">(JSON)</text>
    </g>
    <g text-rendering="geometricPrecision" stroke-miterlimit="1.45" shape-rendering="geometricPrecision" transform="matrix(1,0,0,1,27,-99)" stroke-linecap="butt">
      <path fill="none" d="M540 216 L540 274.4609" clip-path="url(#clipPath2)"/>
      <path d="M540 282.4609 L545 270.4609 L540 273.4609 L535 270.4609 Z" clip-path="url(#clipPath2)" stroke="none"/>
      <path fill="none" d="M598 305.7018 L630.0021 306.1106" clip-path="url(#clipPath2)"/>
      <path d="M638.0015 306.2128 L626.0663 301.0599 L629.0022 306.0978 L625.9386 311.0591 Z" clip-path="url(#clipPath2)" stroke="none"/>
    </g>
    <g fill="rgb(245,245,245)" text-rendering="geometricPrecision" shape-rendering="geometricPrecision" transform="matrix(1,0,0,1,27,-99)" stroke="rgb(245,245,245)">
      <rect x="-12" y="114.5391" clip-path="url(#clipPath2)" width="272" rx="4" ry="4" height="153.9609" stroke="none"/>
      <rect x="-12" y="114.5391" clip-path="url(#clipPath2)" fill="rgb(235,235,235)" width="272" height="21.4609" stroke="none"/>
    </g>
    <g font-size="15px" stroke-linecap="butt" transform="matrix(1,0,0,1,27,-99)" text-rendering="geometricPrecision" font-family="sans-serif" shape-rendering="geometricPrecision" stroke-miterlimit="1.45">
      <text x="184.9702" xml:space="preserve" y="130.4624" clip-path="url(#clipPath2)" stroke="none">Front-end</text>
      <rect x="-12" y="114.5391" clip-path="url(#clipPath2)" fill="none" width="272" stroke-dasharray="6,2" rx="4" ry="4" height="153.9609"/>
    </g>
    <g fill="rgb(255,204,0)" text-rendering="geometricPrecision" shape-rendering="geometricPrecision" transform="matrix(1,0,0,1,27,-99)" stroke="rgb(255,204,0)">
      <rect x="129" width="116" height="45" y="171" clip-path="url(#clipPath2)" stroke="none"/>
    </g>
    <g text-rendering="geometricPrecision" stroke-miterlimit="1.45" shape-rendering="geometricPrecision" font-family="sans-serif" transform="matrix(1,0,0,1,27,-99)" stroke-linecap="butt">
      <text x="157.9463" xml:space="preserve" y="197.6543" clip-path="url(#clipPath2)" stroke="none">Front End</text>
      <rect fill="none" x="129" width="116" height="45" y="171" clip-path="url(#clipPath2)"/>
    </g>
    <g fill="url(#linearGradient2)" text-rendering="geometricPrecision" shape-rendering="geometricPrecision" transform="matrix(1,0,0,1,27,-99)" stroke="url(#linearGradient2)">
      <path d="M3 151 L91 151 L91 193.4375 Q69 181.3125 47 193.4375 Q25 205.5625 3 193.4375 Z" stroke="none" clip-path="url(#clipPath2)"/>
    </g>
    <g text-rendering="geometricPrecision" stroke-miterlimit="1.45" shape-rendering="geometricPrecision" transform="matrix(1,0,0,1,27,-99)" stroke-linecap="butt">
      <path fill="none" d="M3 151 L91 151 L91 193.4375 Q69 181.3125 47 193.4375 Q25 205.5625 3 193.4375 Z" clip-path="url(#clipPath2)"/>
      <text x="34.833" xml:space="preserve" y="172.4199" clip-path="url(#clipPath2)" font-family="sans-serif" stroke="none">SRC</text>
      <text x="27.5879" xml:space="preserve" y="186.3887" clip-path="url(#clipPath2)" font-family="sans-serif" stroke="none">(Akka)</text>
    </g>
    <g fill="url(#linearGradient3)" text-rendering="geometricPrecision" shape-rendering="geometricPrecision" transform="matrix(1,0,0,1,27,-99)" stroke="url(#linearGradient3)">
      <path d="M3 215 L83 205 L83 253.5 L3 253.5 Z" stroke="none" clip-path="url(#clipPath2)"/>
    </g>
    <g text-rendering="geometricPrecision" stroke-miterlimit="1.45" shape-rendering="geometricPrecision" transform="matrix(1,0,0,1,27,-99)" stroke-linecap="butt">
      <path fill="none" d="M3 215 L83 205 L83 253.5 L3 253.5 Z" clip-path="url(#clipPath2)"/>
      <text x="14.8223" xml:space="preserve" y="226.4199" clip-path="url(#clipPath2)" font-family="sans-serif" stroke="none">Options+</text>
      <text x="12.4404" xml:space="preserve" y="240.3887" clip-path="url(#clipPath2)" font-family="sans-serif" stroke="none">Properties</text>
    </g>
    <g text-rendering="geometricPrecision" stroke-miterlimit="1.45" shape-rendering="geometricPrecision" transform="matrix(1,0,0,1,27,-99)" stroke-linecap="butt">
      <path fill="none" d="M245 193.5 L305 193.5" clip-path="url(#clipPath2)"/>
      <path d="M313 193.5 L301 188.5 L304 193.5 L301 198.5 Z" clip-path="url(#clipPath2)" stroke="none"/>
      <path fill="none" d="M90.9893 180.9843 L121.0671 184.9052" clip-path="url(#clipPath2)"/>
      <path d="M129 185.9393 L117.747 179.4301 L120.0755 184.7759 L116.4544 189.3462 Z" clip-path="url(#clipPath2)" stroke="none"/>
      <path fill="none" d="M82.9727 219.3262 L121.2357 209.8269" clip-path="url(#clipPath2)"/>
      <path d="M129 207.8993 L116.1488 205.938 L120.2652 210.0679 L118.5583 215.6434 Z" clip-path="url(#clipPath2)" stroke="none"/>
    </g>
    <g fill="rgb(245,245,245)" text-rendering="geometricPrecision" shape-rendering="geometricPrecision" transform="matrix(1,0,0,1,27,-99)" stroke="rgb(245,245,245)">
      <rect x="761" y="244.25" clip-path="url(#clipPath2)" width="412" rx="4" ry="4" height="99.9609" stroke="none"/>
      <rect x="761" y="244.25" clip-path="url(#clipPath2)" fill="rgb(235,235,235)" width="412" height="21.4609" stroke="none"/>
    </g>
    <g font-size="15px" stroke-linecap="butt" transform="matrix(1,0,0,1,27,-99)" text-rendering="geometricPrecision" font-family="sans-serif" shape-rendering="geometricPrecision" stroke-miterlimit="1.45">
      <text x="964.6768" xml:space="preserve" y="260.1733" clip-path="url(#clipPath2)" stroke="none">Test Generation (back-end)</text>
      <rect x="761" y="244.25" clip-path="url(#clipPath2)" fill="none" width="412" stroke-dasharray="6,2" rx="4" ry="4" height="99.9609"/>
    </g>
    <g fill="rgb(255,204,0)" text-rendering="geometricPrecision" shape-rendering="geometricPrecision" transform="matrix(1,0,0,1,27,-99)" stroke="rgb(255,204,0)">
      <rect x="922" width="116" height="45" y="281.7109" clip-path="url(#clipPath2)" stroke="none"/>
    </g>
    <g text-rendering="geometricPrecision" stroke-miterlimit="1.45" shape-rendering="geometricPrecision" font-family="sans-serif" transform="matrix(1,0,0,1,27,-99)" stroke-linecap="butt">
      <text x="953.1143" xml:space="preserve" y="308.3652" clip-path="url(#clipPath2)" stroke="none">Test Gen</text>
      <rect fill="none" x="922" width="116" height="45" y="281.7109" clip-path="url(#clipPath2)"/>
    </g>
    <g fill="url(#linearGradient4)" text-rendering="geometricPrecision" shape-rendering="geometricPrecision" transform="matrix(1,0,0,1,27,-99)" stroke="url(#linearGradient4)">
      <path d="M1078 286.7109 L1158 286.7109 L1158 321.7109 Q1138 311.7109 1118 321.7109 Q1098 331.7109 1078 321.7109 Z" stroke="none" clip-path="url(#clipPath2)"/>
    </g>
    <g text-rendering="geometricPrecision" stroke-miterlimit="1.45" shape-rendering="geometricPrecision" transform="matrix(1,0,0,1,27,-99)" stroke-linecap="butt">
      <path fill="none" d="M1078 286.7109 L1158 286.7109 L1158 321.7109 Q1138 311.7109 1118 321.7109 Q1098 331.7109 1078 321.7109 Z" clip-path="url(#clipPath2)"/>
      <text x="1102.0391" xml:space="preserve" y="310.8652" clip-path="url(#clipPath2)" font-family="sans-serif" stroke="none">Tests</text>
    </g>
    <g fill="rgb(255,204,0)" text-rendering="geometricPrecision" shape-rendering="geometricPrecision" transform="matrix(1,0,0,1,27,-99)" stroke="rgb(255,204,0)">
      <rect x="776" width="116" height="45" y="281.7109" clip-path="url(#clipPath2)" stroke="none"/>
    </g>
    <g text-rendering="geometricPrecision" stroke-miterlimit="1.45" shape-rendering="geometricPrecision" font-family="sans-serif" transform="matrix(1,0,0,1,27,-99)" stroke-linecap="butt">
      <text x="809.2793" xml:space="preserve" y="308.3652" clip-path="url(#clipPath2)" stroke="none">Analysis</text>
      <rect fill="none" x="776" width="116" height="45" y="281.7109" clip-path="url(#clipPath2)"/>
      <path fill="none" d="M1038 305.2617 L1069.9623 305.8407" clip-path="url(#clipPath2)"/>
      <path d="M1077.9609 305.9856 L1066.0535 300.7691 L1068.9624 305.8226 L1065.8723 310.7674 Z" clip-path="url(#clipPath2)" stroke="none"/>
      <path fill="none" d="M723.9807 305.9628 L768.001 305.2619" clip-path="url(#clipPath2)" stroke="rgb(255,102,0)"/>
      <path fill="rgb(255,102,0)" d="M715.9817 306.0902 L728.0598 310.8985 L724.9805 305.9469 L727.9006 300.8998 Z" clip-path="url(#clipPath2)" stroke="none"/>
      <path fill="rgb(255,102,0)" d="M776 305.1345 L763.9219 300.3262 L767.0012 305.2778 L764.0811 310.3249 Z" clip-path="url(#clipPath2)" stroke="none"/>
      <path fill="none" d="M892 304.2109 L914 304.2109" clip-path="url(#clipPath2)" stroke="rgb(51,51,51)"/>
      <path fill="rgb(51,51,51)" d="M922 304.2109 L910 299.2109 L913 304.2109 L910 309.2109 Z" clip-path="url(#clipPath2)" stroke="none"/>
    </g>
  </g>
</svg>
